<?xml version="1.0" encoding="utf-8"?>
<!-- Generator: Adobe Illustrator 16.0.0, SVG Export Plug-In . SVG Version: 6.00 Build 0)  -->
<!DOCTYPE svg PUBLIC "-//W3C//DTD SVG 1.1//EN" "http://www.w3.org/Graphics/SVG/1.1/DTD/svg11.dtd">
<svg version="1.1" id="图层_1" xmlns="http://www.w3.org/2000/svg" xmlns:xlink="http://www.w3.org/1999/xlink" x="0px" y="0px"
	 width="31.971px" height="32.051px" viewBox="14.015 14.011 31.971 32.051" enable-background="new 14.015 14.011 31.971 32.051"
	 xml:space="preserve">
<g>
	<path fill="#004849" d="M28.841,32.58c-0.02-0.066-0.035-0.135-0.062-0.2c-0.028-0.067-0.067-0.131-0.103-0.194
		c-0.027-0.051-0.049-0.103-0.081-0.148c-0.146-0.221-0.335-0.408-0.555-0.557c-0.046-0.029-0.097-0.051-0.146-0.078
		c-0.065-0.036-0.129-0.075-0.199-0.104c-0.063-0.026-0.13-0.041-0.195-0.062c-0.06-0.018-0.116-0.039-0.178-0.053
		c-0.127-0.023-0.255-0.037-0.384-0.037c-0.002,0-0.004-0.002-0.007-0.002h-8.877c-1.104,0-2,0.896-2,2c0,1.104,0.896,2,2,2h4.049
		l-7.502,7.504c-0.781,0.781-0.781,2.047,0,2.828c0.391,0.391,0.902,0.586,1.414,0.586c0.512,0,1.024-0.195,1.414-0.586l7.502-7.504
		v4.047c0,1.104,0.896,2,2,2s2-0.896,2-2v-8.875c0-0.131-0.014-0.263-0.04-0.392C28.881,32.693,28.858,32.639,28.841,32.58z"/>
	<path fill="#004849" d="M45.398,14.597c-0.78-0.781-2.047-0.781-2.828,0l-7.502,7.502v-4.045c0-1.104-0.896-2-2-2
		c-1.104,0-2,0.896-2,2v8.874c0,0.131,0.015,0.262,0.039,0.392c0.013,0.059,0.035,0.114,0.052,0.171
		c0.021,0.067,0.036,0.136,0.063,0.202c0.026,0.067,0.064,0.128,0.101,0.192c0.026,0.051,0.05,0.104,0.083,0.152
		c0.146,0.22,0.335,0.408,0.555,0.555c0.047,0.032,0.1,0.053,0.148,0.081c0.063,0.036,0.127,0.075,0.195,0.103
		c0.064,0.027,0.133,0.042,0.199,0.062c0.059,0.017,0.113,0.04,0.173,0.051c0.13,0.026,0.261,0.04,0.392,0.04h8.877
		c1.104,0,2-0.896,2-2s-0.896-2-2-2h-4.049l7.502-7.502C46.182,16.644,46.182,15.377,45.398,14.597z"/>
</g>
</svg>
