<svg xmlns="http://www.w3.org/2000/svg" xmlns:xlink="http://www.w3.org/1999/xlink" preserveAspectRatio="xMidYMid" width="36" height="36" viewBox="0 0 36 36">
  <defs>
    <style>
      .cls-1 {
        fill: #004849;
        fill-rule: evenodd;
      }
    </style>
  </defs>
  <path d="M32.000,20.000 L10.000,20.000 C8.895,20.000 8.000,19.105 8.000,18.000 L8.000,15.000 L4.000,15.000 C2.895,15.000 2.000,14.105 2.000,13.000 L2.000,6.000 C2.000,4.895 2.895,4.000 4.000,4.000 L26.000,4.000 C27.105,4.000 28.000,4.895 28.000,6.000 L28.000,9.000 L32.000,9.000 C33.105,9.000 34.000,9.895 34.000,11.000 L34.000,18.000 C34.000,19.105 33.105,20.000 32.000,20.000 ZM10.000,17.000 C10.000,17.552 10.448,18.000 11.000,18.000 L20.000,18.000 L20.000,11.000 L11.000,11.000 C10.448,11.000 10.000,11.448 10.000,12.000 L10.000,17.000 ZM14.000,6.000 L5.000,6.000 C4.448,6.000 4.000,6.448 4.000,7.000 L4.000,12.000 C4.000,12.552 4.448,13.000 5.000,13.000 L8.000,13.000 L8.000,11.000 C8.000,9.895 8.895,9.000 10.000,9.000 L14.000,9.000 L14.000,6.000 ZM26.000,7.000 C26.000,6.448 25.552,6.000 25.000,6.000 L16.000,6.000 L16.000,9.000 L26.000,9.000 L26.000,7.000 ZM32.000,12.000 C32.000,11.448 31.552,11.000 31.000,11.000 L22.000,11.000 L22.000,18.000 L31.000,18.000 C31.552,18.000 32.000,17.552 32.000,17.000 L32.000,12.000 ZM15.879,23.464 L18.000,25.586 L20.121,23.464 L21.536,24.879 L19.414,27.000 L21.536,29.121 L20.121,30.536 L18.000,28.414 L15.879,30.536 L14.464,29.121 L16.586,27.000 L14.464,24.879 L15.879,23.464 Z" class="cls-1"/>
</svg>
