<?xml version="1.0" encoding="utf-8"?>
<!-- Generator: Adobe Illustrator 16.0.0, SVG Export Plug-In . SVG Version: 6.00 Build 0)  -->
<!DOCTYPE svg PUBLIC "-//W3C//DTD SVG 1.1//EN" "http://www.w3.org/Graphics/SVG/1.1/DTD/svg11.dtd">
<svg version="1.1" id="图层_1" xmlns="http://www.w3.org/2000/svg" xmlns:xlink="http://www.w3.org/1999/xlink" x="0px" y="0px"
	 width="30.236px" height="32.388px" viewBox="0 0 30.236 32.388" enable-background="new 0 0 30.236 32.388" xml:space="preserve">
<rect x="1.453" y="1.667" fill="#EFEEED" width="13.042" height="28.875"/>
<path fill="#004849" d="M13.813,0.228H2.134C0.957,0.228,0,1.185,0,2.362v27.629c0,1.176,0.957,2.133,2.134,2.133h11.68
	c1.178,0,2.134-0.957,2.134-2.133V2.362C15.947,1.185,14.991,0.228,13.813,0.228z M2.134,2.228h11.68
	c0.074,0,0.134,0.061,0.134,0.134v7.805H2V2.362C2,2.289,2.06,2.228,2.134,2.228z M13.947,12.167v7.958H2v-7.958H13.947z
	 M13.813,30.124H2.134C2.06,30.124,2,30.063,2,29.991v-7.867h11.947v7.867C13.947,30.063,13.888,30.124,13.813,30.124z"/>
<g>
	<path fill="#004849" d="M27.707,4.114c-0.16-1.137-1.249-2.001-2.497-2.001c-2.257,0-3.105,1.921-3.105,3.921
		c0,1.905,0.849,3.826,3.105,3.826c1.536,0,2.401-1.056,2.593-2.561h2.434c-0.257,2.849-2.226,4.674-5.026,4.674
		c-3.537,0-5.618-2.641-5.618-5.938C19.592,2.641,21.673,0,25.21,0c2.513,0,4.626,1.473,4.93,4.114H27.707z"/>
</g>
<path fill="#004849" d="M29.646,27.544c-0.396-0.385-1.03-0.373-1.413,0.025l-1.291,1.34V16.263c0-0.552-0.447-1-1-1s-1,0.448-1,1
	v12.613l-1.231-1.301c-0.381-0.4-1.013-0.416-1.414-0.039c-0.401,0.381-0.418,1.014-0.039,1.414l2.958,3.125
	c0.188,0.199,0.449,0.313,0.722,0.313c0.002,0,0.004,0,0.005,0c0.271,0,0.531-0.109,0.72-0.307l3.011-3.125
	C30.056,28.56,30.044,27.927,29.646,27.544z"/>
</svg>
