<?xml version="1.0" encoding="utf-8"?>
<!-- Generator: Adobe Illustrator 16.0.0, SVG Export Plug-In . SVG Version: 6.00 Build 0)  -->
<!DOCTYPE svg PUBLIC "-//W3C//DTD SVG 1.1//EN" "http://www.w3.org/Graphics/SVG/1.1/DTD/svg11.dtd">
<svg version="1.1" id="图层_1" xmlns="http://www.w3.org/2000/svg" xmlns:xlink="http://www.w3.org/1999/xlink" x="0px" y="0px"
	 width="35.063px" height="30px" viewBox="14.125 15 35.063 30" enable-background="new 14.125 15 35.063 30" xml:space="preserve">
<g id="图层_1_1_">
	<rect x="15.125" y="16" fill="#EEEEEE" width="24" height="28"/>
	<g>
		<path fill="#004849" d="M39.125,36c-0.553,0-1,0.447-1,1v6h-22V22.063h22V23c0,0.552,0.447,1,1,1s1-0.448,1-1v-6
			c0-1.103-0.896-2-2-2h-22c-1.103,0-2,0.897-2,2v26c0,1.104,0.897,2,2,2h22c1.104,0,2-0.896,2-2v-6
			C40.125,36.447,39.678,36,39.125,36z M38.125,17v3.063h-22V17H38.125z"/>
		<path fill="#004849" d="M33.291,29c0.553,0,1-0.448,1-1s-0.447-1-1-1H31.25v-1.987c0-0.552-0.448-1-1-1s-1,0.448-1,1V27h-3.958
			v-1.987c0-0.552-0.448-1-1-1s-1,0.448-1,1V27h-2.058c-0.552,0-1,0.448-1,1s0.448,1,1,1h2.058v3.041h-2.058c-0.552,0-1,0.447-1,1
			s0.448,1,1,1h2.058V37h-2.058c-0.552,0-1,0.447-1,1s0.448,1,1,1h2.058v1.084c0,0.553,0.448,1,1,1s1-0.447,1-1V39h3.958v1.084
			c0,0.553,0.448,1,1,1s1-0.447,1-1V39h2.041c0.553,0,1-0.447,1-1s-0.447-1-1-1H31.25v-2.959h2.041c0.553,0,1-0.447,1-1
			s-0.447-1-1-1H31.25V29H33.291z M29.25,37h-3.958v-2.959h3.958V37z M29.25,32.041h-3.958V29h3.958V32.041z"/>
		<path fill="#004849" d="M48.955,30.618c0.061-0.075,0.119-0.15,0.156-0.241c0.037-0.093,0.05-0.191,0.059-0.29
			c0.003-0.03,0.018-0.056,0.018-0.087c0-0.001,0-0.002,0-0.003c0-0.13-0.025-0.259-0.076-0.381
			c-0.051-0.122-0.125-0.232-0.217-0.324l-3.969-3.968c-0.391-0.391-1.023-0.391-1.414,0c-0.391,0.391-0.391,1.023,0,1.414
			L45.773,29h-7.545c-0.555,0-1,0.448-1,1s0.445,1,1,1h7.584l-2.311,2.363c-0.387,0.396-0.379,1.027,0.018,1.414
			c0.193,0.188,0.445,0.285,0.697,0.285c0.262,0,0.521-0.103,0.717-0.303l3.959-4.054c0.002-0.001,0.002-0.002,0.004-0.003
			l0.006-0.006C48.926,30.675,48.936,30.645,48.955,30.618z"/>
	</g>
</g>
</svg>
