<?xml version="1.0" encoding="utf-8"?>
<!-- Generator: Adobe Illustrator 16.0.0, SVG Export Plug-In . SVG Version: 6.00 Build 0)  -->
<!DOCTYPE svg PUBLIC "-//W3C//DTD SVG 1.1//EN" "http://www.w3.org/Graphics/SVG/1.1/DTD/svg11.dtd">
<svg version="1.1" id="图层_1" xmlns="http://www.w3.org/2000/svg" xmlns:xlink="http://www.w3.org/1999/xlink" x="0px" y="0px"
	 width="32px" height="33.061px" viewBox="14 10.939 32 33.061" enable-background="new 14 10.939 32 33.061" xml:space="preserve">
<g id="图层_4">
	<rect x="15" y="20" fill="#FFF" width="30" height="23"/>
	<g>
		<path fill="#004849" d="M44,19c-0.553,0-1,0.448-1,1s0.447,1,1,1v2.938H16V21h19.938c0.555,0,1-0.448,1-1s-0.445-1-1-1H16
			c-1.103,0-2,0.897-2,2v21c0,1.104,0.897,2,2,2h28c1.104,0,2-0.896,2-2V21C46,19.897,45.104,19,44,19z M26,35.938v-4h8v4H26z
			 M34,37.938V42h-8v-4.063H34L34,37.938z M16,31.938h8v4h-8V31.938z M34,29.938h-8v-3.854c0-0.052-0.022-0.096-0.029-0.146h8.058
			C34.021,25.987,34,26.032,34,26.083V29.938z M36,31.938h8v4h-8V31.938z M44,29.938h-8v-3.854c0-0.052-0.021-0.096-0.029-0.146H44
			V29.938z M24.029,25.938C24.022,25.987,24,26.032,24,26.083v3.854h-8v-4L24.029,25.938L24.029,25.938z M16,37.938h8V42h-8V37.938z
			 M36,42v-4.063h8V42H36z"/>
		<path fill="#004849" d="M39.23,19.645c0.193,0.195,0.451,0.293,0.707,0.293s0.512-0.098,0.707-0.293l2.982-2.984
			c0.393-0.391,0.393-1.023,0-1.414s-1.021-0.391-1.414,0l-1.271,1.27v-4.578c0-0.552-0.445-1-1-1c-0.553,0-1,0.448-1,1v4.594
			l-1.27-1.27c-0.391-0.391-1.023-0.391-1.414,0c-0.391,0.391-0.391,1.023,0,1.414L39.23,19.645z"/>
	</g>
</g>
</svg>
