<?xml version="1.0" encoding="utf-8"?>
<!-- Generator: Adobe Illustrator 16.0.0, SVG Export Plug-In . SVG Version: 6.00 Build 0)  -->
<!DOCTYPE svg PUBLIC "-//W3C//DTD SVG 1.1//EN" "http://www.w3.org/Graphics/SVG/1.1/DTD/svg11.dtd">
<svg version="1.1" id="图层_1" xmlns="http://www.w3.org/2000/svg" xmlns:xlink="http://www.w3.org/1999/xlink" x="0px" y="0px"
	 width="37.98px" height="31.896px" viewBox="0 0 37.98 31.896" enable-background="new 0 0 37.98 31.896" xml:space="preserve">
<path fill="#004849" d="M7.969,15.95c0,0,0-0.001,0-0.002c0-0.023-0.012-0.042-0.013-0.065c-0.007-0.107-0.022-0.214-0.063-0.315
	c-0.037-0.089-0.097-0.164-0.157-0.238c-0.021-0.027-0.031-0.06-0.056-0.085l-2.979-3.01c-0.388-0.391-1.021-0.395-1.415-0.007
	c-0.393,0.389-0.396,1.022-0.007,1.415l1.293,1.307H1.011c-0.552,0-1,0.448-1,1s0.448,1,1,1h3.533l-1.258,1.249
	c-0.392,0.39-0.394,1.022-0.005,1.415c0.195,0.196,0.452,0.295,0.709,0.295c0.255,0,0.51-0.097,0.705-0.29l2.979-2.959
	c0-0.001,0-0.001,0.001-0.002c0.092-0.092,0.166-0.201,0.217-0.323S7.969,16.08,7.969,15.95z"/>
<path fill="#004849" d="M30.012,15.95c0,0,0-0.001,0-0.002c0-0.023,0.012-0.042,0.013-0.065c0.007-0.107,0.022-0.214,0.063-0.315
	c0.037-0.089,0.097-0.164,0.156-0.238c0.021-0.027,0.031-0.06,0.057-0.085l2.979-3.01c0.389-0.391,1.021-0.395,1.414-0.007
	c0.393,0.389,0.396,1.022,0.008,1.415l-1.293,1.307h3.562c0.552,0,1,0.448,1,1s-0.448,1-1,1h-3.532l1.258,1.249
	c0.392,0.39,0.394,1.022,0.004,1.415c-0.195,0.196-0.451,0.295-0.709,0.295c-0.255,0-0.51-0.097-0.705-0.29l-2.979-2.959
	c0-0.001,0-0.001-0.001-0.002c-0.093-0.092-0.166-0.201-0.217-0.323S30.012,16.08,30.012,15.95z"/>
<rect x="12.516" y="1.438" fill="#EFEEEE" width="13.042" height="28.875"/>
<path fill="#004849" d="M24.877,0h-11.68c-1.177,0-2.134,0.957-2.134,2.134v27.628c0,1.177,0.957,2.134,2.134,2.134h11.68
	c1.177,0,2.134-0.957,2.134-2.134V2.134C27.011,0.957,26.054,0,24.877,0z M13.197,2h11.68c0.074,0,0.134,0.06,0.134,0.134v7.804
	H13.063V2.134C13.063,2.06,13.123,2,13.197,2z M25.011,11.938v7.958H13.063v-7.958H25.011z M24.877,29.896h-11.68
	c-0.074,0-0.134-0.06-0.134-0.134v-7.866h11.948v7.866C25.011,29.836,24.951,29.896,24.877,29.896z"/>
</svg>
