<svg xmlns="http://www.w3.org/2000/svg" xmlns:xlink="http://www.w3.org/1999/xlink" preserveAspectRatio="xMidYMid" width="36" height="36" viewBox="0 0 36 36">
  <defs>
    <style>
      .cls-1 {
        fill: #004849;
        fill-rule: evenodd;
      }
    </style>
  </defs>
  <path d="M34.000,21.500 C34.000,23.433 32.433,25.000 30.500,25.000 L25.000,25.000 L25.000,13.000 L30.000,13.000 C31.657,13.000 33.000,14.343 33.000,16.000 C33.000,16.929 32.569,17.749 31.906,18.299 C33.138,18.841 34.000,20.068 34.000,21.500 ZM30.500,16.325 C30.500,15.593 29.907,15.000 29.175,15.000 L27.000,15.000 L27.000,17.656 L29.175,17.656 C29.907,17.656 30.500,17.063 30.500,16.331 L30.500,16.325 ZM31.500,21.000 C31.500,19.895 30.605,19.000 29.500,19.000 L27.000,19.000 L27.000,23.000 L30.000,23.000 C30.828,23.000 31.500,22.328 31.500,21.500 L31.500,21.000 ZM17.000,27.000 C17.000,27.000 18.000,26.000 18.000,24.000 C18.000,22.000 18.000,22.000 18.000,22.000 L20.000,22.000 C20.000,22.000 20.000,23.469 20.000,25.000 C20.000,26.938 17.000,27.000 17.000,27.000 ZM18.000,18.000 L20.000,18.000 L20.000,20.000 L18.000,20.000 L18.000,18.000 ZM11.333,21.000 L6.667,21.000 L5.000,25.000 L3.000,25.000 L8.000,13.000 L10.000,13.000 L15.000,25.000 L13.000,25.000 L11.333,21.000 ZM9.000,15.400 L7.500,19.000 L10.500,19.000 L9.000,15.400 Z" class="cls-1"/>
</svg>
