<?xml version="1.0" encoding="utf-8"?>
<!-- Generator: Adobe Illustrator 16.0.0, SVG Export Plug-In . SVG Version: 6.00 Build 0)  -->
<!DOCTYPE svg PUBLIC "-//W3C//DTD SVG 1.1//EN" "http://www.w3.org/Graphics/SVG/1.1/DTD/svg11.dtd">
<svg version="1.1" id="图层_1" xmlns="http://www.w3.org/2000/svg" xmlns:xlink="http://www.w3.org/1999/xlink" x="0px" y="0px"
	 width="38.132px" height="24.042px" viewBox="0 0 38.132 24.042" enable-background="new 0 0 38.132 24.042" xml:space="preserve">
<g id="图层_5">
	<circle fill="#FFFFFF" cx="12.02" cy="12.021" r="11.021"/>
	<path fill="#004849" d="M26.112,0c-2.633,0-5.063,0.86-7.047,2.302C17.083,0.861,14.653,0,12.02,0C5.393,0,0,5.394,0,12.021
		C0,18.65,5.393,24.042,12.02,24.042c2.633,0,5.063-0.861,7.045-2.305c1.982,1.441,4.414,2.305,7.047,2.305
		c6.627,0,12.021-5.395,12.021-12.021C38.132,5.396,32.739,0,26.112,0z M2,12.021C2,6.497,6.496,2,12.02,2
		c2.024,0,3.908,0.608,5.485,1.646c-2.11,2.166-3.416,5.119-3.416,8.375s1.306,6.211,3.416,8.377
		c-1.578,1.037-3.461,1.646-5.485,1.646C6.496,22.042,2,17.546,2,12.021z M26.112,22.042c-2.024,0-3.907-0.607-5.485-1.646
		c2.108-2.166,3.416-5.119,3.416-8.375s-1.308-6.209-3.416-8.375C22.205,2.609,24.087,2,26.112,2
		c5.523,0,10.021,4.495,10.021,10.021C36.131,17.546,31.635,22.042,26.112,22.042z"/>
	<circle fill="#004849" cx="26.11" cy="12.021" r="11.021"/>
</g>
</svg>
