<?xml version="1.0" encoding="utf-8"?>
<!-- Generator: Adobe Illustrator 16.0.0, SVG Export Plug-In . SVG Version: 6.00 Build 0)  -->
<!DOCTYPE svg PUBLIC "-//W3C//DTD SVG 1.1//EN" "http://www.w3.org/Graphics/SVG/1.1/DTD/svg11.dtd">
<svg version="1.1" id="图层_1" xmlns="http://www.w3.org/2000/svg" xmlns:xlink="http://www.w3.org/1999/xlink" x="0px" y="0px"
	 width="30.004px" height="31.052px" viewBox="14.998 15.022 30.004 31.052" enable-background="new 14.998 15.022 30.004 31.052"
	 xml:space="preserve">
<g id="图层_6">
	<path fill="#FFFFFF" d="M44.002,44c0,0.553-0.447,1-1,1h-16c-0.552,0-1-0.447-1-1v-5.041h18V44z"/>
	<path fill="#FFFFFF" d="M43.076,34.922h-27V17.091c0-0.622,0.448-1.069,1-1.069h25c0.552,0,1,0.447,1,1.069V34.922z"/>
	<g>
		<path fill="#004849" d="M22.018,41.063h-2.01v-2.01c0-0.553-0.448-1-1-1c-0.552,0-1,0.447-1,1v2.01h-2.01c-0.552,0-1,0.447-1,1
			c0,0.555,0.448,1,1,1h2.01v2.012c0,0.553,0.448,1,1,1c0.552,0,1-0.447,1-1v-2.012h2.01c0.552,0,1-0.445,1-1
			C23.018,41.51,22.57,41.063,22.018,41.063z"/>
		<path fill="#004849" d="M16.076,35.922h27c0.553,0,1-0.447,1-1V17.091c0-1.16-0.879-2.069-2-2.069h-25c-1.122,0-2,0.909-2,2.069
			v17.831C15.076,35.475,15.523,35.922,16.076,35.922z M42.076,26.938h-7.078v-4.959h7.078V26.938z M32.998,26.938h-6.959v-4.959
			h6.959V26.938z M32.998,28.938v4.983h-6.959v-4.983H32.998z M24.039,26.938h-6.963v-4.959h6.963V26.938z M17.076,28.938h6.963
			v4.983h-6.963V28.938z M34.998,33.922v-4.983h7.078v4.983H34.998z M42.076,17.091v2.889h-25v-2.958L42.076,17.091z"/>
		<path fill="#004849" d="M44.002,37.959h-18c-0.552,0-1,0.447-1,1V44c0,1.104,0.897,2,2,2h16c1.104,0,2-0.896,2-2v-5.041
			C45.002,38.406,44.555,37.959,44.002,37.959z M36.977,39.959V44h-3.969v-4.041H36.977z M27.002,39.959h4.005V44h-4.005V39.959z
			 M38.977,44v-4.041h4.025L43.004,44H38.977z"/>
	</g>
</g>
</svg>
