<?xml version="1.0" encoding="utf-8"?>
<!-- Generator: Adobe Illustrator 16.0.0, SVG Export Plug-In . SVG Version: 6.00 Build 0)  -->
<!DOCTYPE svg PUBLIC "-//W3C//DTD SVG 1.1//EN" "http://www.w3.org/Graphics/SVG/1.1/DTD/svg11.dtd">
<svg version="1.1" id="图层_1" xmlns="http://www.w3.org/2000/svg" xmlns:xlink="http://www.w3.org/1999/xlink" x="0px" y="0px"
	 width="35.958px" height="30px" viewBox="10.042 15.016 35.958 30" enable-background="new 10.042 15.016 35.958 30"
	 xml:space="preserve">
<g id="图层_3">
	<rect x="21" y="16.016" fill="#EEEEEE" width="24" height="28"/>
	<g>
		<path fill="#004849" d="M44,15.016H22c-1.103,0-2,0.897-2,2v6c0,0.552,0.448,1,1,1s1-0.448,1-1v-0.938h22v20.938H22v-6
			c0-0.553-0.448-1-1-1s-1,0.447-1,1v6c0,1.104,0.897,2,2,2h22c1.104,0,2-0.896,2-2v-26C46,15.913,45.104,15.016,44,15.016z
			 M22,20.078v-3.063h22v3.063H22z"/>
		<path fill="#004849" d="M26.834,37.016c-0.552,0-1,0.447-1,1s0.448,1,1,1h2.041V40.1c0,0.553,0.448,1,1,1s1-0.447,1-1v-1.084
			h3.959V40.1c0,0.553,0.447,1,1,1s1-0.447,1-1v-1.084h2.059c0.553,0,1-0.447,1-1s-0.447-1-1-1h-2.059v-2.959h2.059
			c0.553,0,1-0.447,1-1s-0.447-1-1-1h-2.059v-3.041h2.059c0.553,0,1-0.448,1-1c0-0.552-0.447-1-1-1h-2.059v-1.987
			c0-0.552-0.447-1-1-1s-1,0.448-1,1v1.987h-3.959v-1.987c0-0.552-0.448-1-1-1s-1,0.448-1,1v1.987h-2.041c-0.552,0-1,0.448-1,1
			c0,0.552,0.448,1,1,1h2.041v3.041h-2.041c-0.552,0-1,0.447-1,1s0.448,1,1,1h2.041v2.959H26.834z M30.875,29.016h3.959v3.041
			h-3.959V29.016z M30.875,34.057h3.959v2.959h-3.959V34.057z"/>
		<path fill="#004849" d="M21.785,30.607c0.051-0.067,0.106-0.133,0.139-0.213c0.04-0.097,0.053-0.199,0.061-0.302
			C21.987,30.065,22,30.042,22,30.016c0-0.001,0-0.002,0-0.003c0-0.13-0.026-0.259-0.077-0.381c-0.05-0.122-0.124-0.231-0.216-0.324
			l-3.968-3.968c-0.391-0.391-1.023-0.391-1.414,0c-0.391,0.391-0.391,1.023,0,1.414l2.261,2.262h-7.544c-0.552,0-1,0.448-1,1
			s0.448,1,1,1h7.583l-2.309,2.363c-0.386,0.396-0.378,1.028,0.017,1.414c0.194,0.189,0.447,0.285,0.699,0.285
			c0.26,0,0.52-0.102,0.715-0.301l3.969-4.063C21.746,30.684,21.759,30.643,21.785,30.607z"/>
	</g>
</g>
</svg>
