<?xml version="1.0" encoding="utf-8"?>
<!-- Generator: Adobe Illustrator 16.0.0, SVG Export Plug-In . SVG Version: 6.00 Build 0)  -->
<!DOCTYPE svg PUBLIC "-//W3C//DTD SVG 1.1//EN" "http://www.w3.org/Graphics/SVG/1.1/DTD/svg11.dtd">
<svg version="1.1" id="图层_1" xmlns="http://www.w3.org/2000/svg" xmlns:xlink="http://www.w3.org/1999/xlink" x="0px" y="0px"
	 width="30px" height="32.348px" viewBox="15 15 30 32.348" enable-background="new 15 15 30 32.348" xml:space="preserve">
<g id="图层_7">
	<path fill="#FFF" d="M44,20c0,0.553-9.99,13.031-9.99,13.031S34,39.568,34,41.034c0,1.7-0.339,2.167-1.146,2.591
		c-1.607,0.844-3.228,1.748-4.771,2.409c-2.042,0.875-2.042-0.292-2.042-0.958c0-1.167-0.031-12.045-0.031-12.045S16,20.553,16,20
		v-3c0-0.553,0.448-1,1-1h26c0.552,0,1,0.447,1,1V20z"/>
	<g>
		<path fill="#004849" d="M26.887,47.348c-0.777,0-1.384-0.39-1.664-1.065c-0.182-0.439-0.182-0.899-0.182-1.204
			c0-1.042-0.025-9.821-0.03-11.692C15,20.898,15,20.421,15,20v-3c0-1.103,0.897-2,2-2h26c1.104,0,2,0.897,2,2v3
			c0,0.42,0,0.897-9.991,13.383C35.007,34.758,35,39.773,35,41.034c0,1.915-0.439,2.823-1.682,3.477l-1.037,0.55
			c-1.258,0.668-2.556,1.357-3.804,1.895C27.858,47.219,27.338,47.348,26.887,47.348z M17,19.777
			c0.791,1.294,6.341,8.329,9.791,12.627c0.142,0.178,0.219,0.396,0.22,0.623c0,0,0.031,10.882,0.031,12.049
			c0,0.066,0,0.164,0.004,0.253c0.131-0.024,0.337-0.083,0.644-0.214c1.172-0.502,2.433-1.174,3.653-1.821l1.048-0.555
			c0.406-0.214,0.61-0.32,0.61-1.705c0-1.466,0.011-8.005,0.011-8.005c0-0.229,0.077-0.446,0.219-0.623
			c3.442-4.3,8.982-11.335,9.771-12.629V17H17V19.777z"/>
	</g>
	<g>
		<path fill="#004849" d="M28.042,30.003c-0.296,0-0.589-0.131-0.787-0.382l-7.042-8.958c-0.341-0.435-0.266-1.063,0.168-1.404
			c0.435-0.341,1.063-0.267,1.404,0.168l7.042,8.958c0.341,0.435,0.266,1.063-0.168,1.404
			C28.476,29.933,28.258,30.003,28.042,30.003z"/>
	</g>
</g>
</svg>
