<svg xmlns="http://www.w3.org/2000/svg" xmlns:xlink="http://www.w3.org/1999/xlink" preserveAspectRatio="xMidYMid" width="36" height="36" viewBox="0 0 36 36">
  <defs>
    <style>
      .cls-1 {
        fill: #004849;
      }

      .cls-1, .cls-2 {
        fill-rule: evenodd;
      }

      .cls-2 {
        fill: #004849;
      }
    </style>
  </defs>
  <path d="M23.000,23.000 L23.000,31.000 L5.000,31.000 L5.000,13.000 L13.000,13.000 L13.000,5.000 L31.000,5.000 L31.000,23.000 L23.000,23.000 Z" class="cls-1"/>
  <path d="M31.000,26.000 L26.000,26.000 L26.000,31.000 C26.000,32.657 24.657,34.000 23.000,34.000 L5.000,34.000 C3.343,34.000 2.000,32.657 2.000,31.000 L2.000,13.000 C2.000,11.343 3.343,10.000 5.000,10.000 L10.000,10.000 L10.000,5.000 C10.000,3.343 11.343,2.000 13.000,2.000 L31.000,2.000 C32.657,2.000 34.000,3.343 34.000,5.000 L34.000,23.000 C34.000,24.657 32.657,26.000 31.000,26.000 ZM5.000,13.000 L5.000,31.000 L23.000,31.000 L23.000,13.000 L5.000,13.000 ZM31.000,5.000 L13.000,5.000 L13.000,10.000 L15.000,10.000 L15.000,9.000 L18.000,9.000 L18.000,6.000 L21.000,6.000 L21.000,9.000 L24.000,9.000 L24.000,6.000 L27.000,6.000 L27.000,9.000 L30.000,9.000 L30.000,12.000 L27.000,12.000 L27.000,15.000 L30.000,15.000 L30.000,18.000 L27.000,18.000 L27.000,21.000 L26.000,21.000 L26.000,23.000 L31.000,23.000 L31.000,5.000 ZM16.333,24.000 L11.667,24.000 L10.000,28.000 L8.000,28.000 L13.000,16.000 L15.000,16.000 L20.000,28.000 L18.000,28.000 L16.333,24.000 ZM14.000,18.400 L12.500,22.000 L15.500,22.000 L14.000,18.400 Z" class="cls-2"/>
</svg>
