<svg xmlns="http://www.w3.org/2000/svg" xmlns:xlink="http://www.w3.org/1999/xlink" preserveAspectRatio="xMidYMid" width="36" height="36" viewBox="0 0 36 36">
  <defs>
    <style>
      .cls-1 {
        fill: #004849;
        fill-rule: evenodd;
      }
    </style>
  </defs>
  <path d="M32.885,22.840 L31.154,20.440 L27.923,20.440 L27.923,30.068 L29.308,30.520 L29.308,31.000 L27.923,31.000 L26.077,31.000 L24.692,31.000 L24.692,30.520 L26.077,30.059 L26.077,20.440 L22.846,20.440 L21.115,22.840 L21.000,22.840 L21.923,19.000 L32.077,19.000 L33.000,22.840 L32.885,22.840 ZM25.000,9.000 L18.000,9.000 L18.000,29.059 L21.000,30.000 L21.000,31.000 L18.000,31.000 L14.000,31.000 L11.000,31.000 L11.000,30.000 L14.000,29.040 L14.000,9.000 L7.000,9.000 L3.250,14.000 L3.000,14.000 L5.000,6.000 L27.000,6.000 L29.000,14.000 L28.750,14.000 L25.000,9.000 Z" class="cls-1"/>
</svg>
