<svg xmlns="http://www.w3.org/2000/svg" xmlns:xlink="http://www.w3.org/1999/xlink" preserveAspectRatio="xMidYMid" width="36" height="36" viewBox="0 0 36 36">
  <defs>
    <style>
      .cls-1 {
        fill: #004849;
        fill-rule: evenodd;
      }
    </style>
  </defs>
  <path d="M29.000,33.000 L7.000,33.000 C4.791,33.000 3.000,31.209 3.000,29.000 L3.000,7.000 C3.000,4.791 4.791,3.000 7.000,3.000 L29.000,3.000 C31.209,3.000 33.000,4.791 33.000,7.000 L33.000,29.000 C33.000,31.209 31.209,33.000 29.000,33.000 ZM30.000,6.000 L6.000,6.000 L6.000,30.000 L30.000,30.000 L30.000,6.000 ZM13.000,26.000 L9.000,26.000 L9.000,15.000 L13.000,15.000 L13.000,26.000 ZM20.000,26.000 L16.000,26.000 L16.000,10.000 L20.000,10.000 L20.000,26.000 ZM27.000,26.000 L23.000,26.000 L23.000,20.000 L27.000,20.000 L27.000,26.000 Z" class="cls-1"/>
</svg>
