<svg xmlns="http://www.w3.org/2000/svg" xmlns:xlink="http://www.w3.org/1999/xlink" preserveAspectRatio="xMidYMid" width="36" height="36" viewBox="0 0 36 36">
  <defs>
    <style>
      .cls-1 {
        fill: #004849;
        fill-rule: evenodd;
      }
    </style>
  </defs>
  <path d="M30.020,22.623 L26.877,19.480 L28.865,17.492 L32.008,20.635 L30.020,22.623 ZM22.000,20.857 L18.857,24.000 L10.000,24.000 L10.000,30.000 L14.992,30.000 L14.992,33.000 L9.000,33.000 C7.895,33.000 7.000,32.105 7.000,31.000 L7.000,5.000 C7.000,3.895 7.895,3.000 9.000,3.000 L20.000,3.000 C21.105,3.000 22.000,3.895 22.000,5.000 L22.000,12.000 L22.000,12.000 L22.000,15.000 L22.000,15.000 L22.000,20.857 ZM19.000,6.000 L10.000,6.000 L10.000,12.000 L19.000,12.000 L19.000,6.000 ZM19.000,15.000 L10.000,15.000 L10.000,21.000 L19.000,21.000 L19.000,15.000 ZM29.313,23.330 L20.135,32.508 L17.342,32.508 L16.992,32.158 L16.992,29.365 L26.170,20.187 L29.313,23.330 Z" class="cls-1"/>
</svg>
