<svg width="50" height="50" xmlns="http://www.w3.org/2000/svg">
 <!-- Created with Method Draw - http://github.com/duopixel/Method-Draw/ -->

 <g>
  <title>background</title>
  <rect fill="none" id="canvas_background" height="52" width="52" y="-1" x="-1"/>
  <g display="none" overflow="visible" y="0" x="0" height="100%" width="100%" id="canvasGrid">
   <rect fill="url(#gridpattern)" stroke-width="0" y="0" x="0" height="100%" width="100%"/>
  </g>
 </g>
 <g>
  <title>Layer 1</title>
  <defs>
   <style>.cls-1 {
        fill: #fff;
      }

      .cls-2 {
        fill: #004849;
        fill-rule: evenodd;
      }</style>
  </defs>
  <g stroke="null" id="svg_6">
   <rect stroke="null" transform="matrix(1.4380430172643988,0,0,1.4380430172643988,-161.87025833684362,-167.9364657992127) " id="svg_4" class="cls-1" height="28" width="20" y="120.179823" x="119.947614"/>
   <path stroke="null" id="svg_5" class="cls-2" d="m39.38043,49.466623l-28.76086,0c-2.382837,0 -4.314129,-1.931292 -4.314129,-4.314129l0,-40.265204c0,-2.382837 1.931292,-4.314129 4.314129,-4.314129l28.76086,0c2.382837,0 4.314129,1.931292 4.314129,4.314129l0,40.265204c0,2.382837 -1.931292,4.314129 -4.314129,4.314129zm-17.256516,-4.314129l5.752172,0l0,-5.752172l-5.752172,0l0,5.752172zm0,-10.066301l5.752172,0l0,-5.752172l-5.752172,0l0,5.752172zm0,-10.066301l5.752172,0l0,-5.752172l-5.752172,0l0,5.752172zm-11.504344,20.132602l7.190215,0l0,-5.752172l-7.190215,0l0,5.752172zm0,-10.066301l7.190215,0l0,-5.752172l-7.190215,0l0,5.752172zm0,-10.066301l7.190215,0l0,-5.752172l-7.190215,0l0,5.752172zm28.76086,-20.132602l-28.76086,0l0,10.066301l28.76086,0l0,-10.066301zm0,14.38043l-7.190215,0l0,5.752172l7.190215,0l0,-5.752172zm0,10.066301l-7.190215,0l0,5.752172l7.190215,0l0,-5.752172zm0,10.066301l-7.190215,0l0,5.752172l7.190215,0l0,-5.752172z"/>
  </g>
 </g>
</svg>