<svg xmlns="http://www.w3.org/2000/svg" xmlns:xlink="http://www.w3.org/1999/xlink" preserveAspectRatio="xMidYMid" width="36" height="36" viewBox="0 0 36 36">
  <defs>
    <style>
      .cls-1 {
        fill: #004849;
        fill-rule: evenodd;
      }
    </style>
  </defs>
  <path d="M26.332,33.346 C29.184,29.677 31.000,24.166 31.000,18.000 C31.000,11.834 29.184,6.323 26.332,2.654 C30.925,5.818 34.000,11.498 34.000,18.000 C34.000,24.502 30.925,30.182 26.332,33.346 ZM24.000,27.000 L21.500,21.000 L14.500,21.000 L12.000,27.000 L9.000,27.000 L16.500,9.000 L19.500,9.000 L27.000,27.000 L24.000,27.000 ZM18.000,12.600 L15.750,18.000 L20.250,18.000 L18.000,12.600 ZM9.668,33.346 C5.075,30.182 2.000,24.502 2.000,18.000 C2.000,11.498 5.075,5.818 9.668,2.654 C6.816,6.323 5.000,11.834 5.000,18.000 C5.000,24.166 6.816,29.677 9.668,33.346 Z" class="cls-1"/>
</svg>
