<svg xmlns="http://www.w3.org/2000/svg" xmlns:xlink="http://www.w3.org/1999/xlink" preserveAspectRatio="xMidYMid" width="36" height="36" viewBox="0 0 36 36">
  <defs>
    <style>
      .cls-1 {
        fill: #fff;
      }

      .cls-2 {
        fill: #004849;
        fill-rule: evenodd;
      }
    </style>
  </defs>
  <g>
    <rect x="6" y="11" width="24" height="21" class="cls-1"/>
    <path d="M29.000,35.000 L7.000,35.000 C4.791,35.000 3.000,33.209 3.000,31.000 L3.000,9.000 C3.000,6.791 4.791,5.000 7.000,5.000 L8.000,5.000 L8.000,1.000 L11.000,1.000 L11.000,5.000 L25.000,5.000 L25.000,1.000 L28.000,1.000 L28.000,5.000 L29.000,5.000 C31.209,5.000 33.000,6.791 33.000,9.000 L33.000,31.000 C33.000,33.209 31.209,35.000 29.000,35.000 ZM30.000,11.000 L6.000,11.000 L6.000,32.000 L30.000,32.000 L30.000,11.000 ZM16.500,15.000 L19.500,15.000 L19.500,20.000 L25.000,20.000 L25.000,23.000 L19.500,23.000 L19.500,28.000 L16.500,28.000 L16.500,23.000 L11.000,23.000 L11.000,20.000 L16.500,20.000 L16.500,15.000 Z" class="cls-2"/>
  </g>
</svg>
